<svg width="587" height="450" viewBox="0 0 587 450" fill="none" xmlns="http://www.w3.org/2000/svg">
<g clip-path="url(#clip0_50_8)">
<rect width="587" height="450" fill="#F0F0FD"/>
<path d="M467.658 304.047C460.913 303.852 451.731 300.353 452.913 292.34C453.915 285.52 461.786 284.306 467.209 286.506C472.632 288.707 478.294 292.675 483.678 290.292C485.836 289.35 487.699 287.437 489.969 287.009C492.333 286.582 494.748 287.864 497.091 287.237C500.499 286.368 502.535 281.838 505.876 280.654C511.444 278.672 517.527 286.801 522.593 283.361C525.757 281.207 526.15 276.06 526.909 271.77C529.891 255.41 545.76 244.3 558.982 249.299C576.243 255.856 584.899 283.402 602.894 285.726C610.361 286.698 641.301 279.955 635.399 301.775C631.744 315.252 595.742 307.558 586.521 307.305C546.923 306.257 507.302 305.152 467.658 304.047Z" fill="white"/>
<path d="M513.792 349.107C516.876 349.45 520.911 348.952 521.013 345.557C521.086 343.16 518.977 341.11 517.061 339.639C513.291 336.718 508.816 333.953 504.781 335.034C503.231 335.454 501.887 336.421 500.334 336.791C491.247 338.94 482.777 321.166 473.843 323.758C472.384 324.184 471.158 325.141 469.807 325.823C468.112 326.685 466.203 327.082 464.3 327.363C458.012 328.253 451.375 327.671 444.915 325.682C441.998 324.783 439.059 323.581 436.13 323.514C428.465 323.351 415.178 330.524 423.947 339.995C430.199 346.741 437.42 344.775 444.005 343.486C465.162 339.391 491.697 346.689 513.792 349.107Z" fill="white"/>
<path d="M478.597 376.823C475.285 377.35 471.864 377.927 469.469 379.501C466.175 381.653 468.846 385.217 469.407 388.277C469.726 390.108 469.809 391.349 468.787 392.865C467.936 394.139 464.867 394.768 465.9 396.77C467.381 399.558 471.665 399.628 472.79 403.215C473.726 406.165 472.141 408.731 473.587 411.72C475.09 414.814 478.367 417.939 478.911 421.143C479.466 424.499 474.749 427.609 478.698 431.125C480.785 433.006 484.524 433.238 486.832 432.209C491.631 430.064 493.64 423.783 495.873 420.088C496.904 418.362 499.595 416.544 501.812 418.127C503.208 419.119 502.759 427.576 507.329 424.631C508.227 424.054 508.46 423.066 508.647 422.126C508.926 420.813 508.784 419.19 509.48 418.013C512.026 413.741 514.425 411.784 513.973 406.247C513.922 405.655 513.977 404.927 514.696 404.802C515.086 404.739 515.515 404.838 515.937 404.956C518.556 405.691 521.488 406.785 523.49 405.379C525.653 403.856 522.663 401.166 522.221 399.146C522.301 399.556 528.762 403.198 529.733 403.986C528.776 399.795 524.562 395.403 519.715 392.655" fill="#D8951C"/>
<path d="M476.516 394.71C476.721 396.609 477.337 398.473 478.465 400.187C479.348 401.522 480.547 402.833 480.944 404.241C481.28 405.46 481.018 406.63 481.293 407.849C482.388 412.555 488.209 409.831 490.402 408.403C493.136 406.641 495.279 406.581 498.909 407.799C499.325 407.936 499.769 408.082 500.122 407.943C500.47 407.823 500.571 407.516 500.604 407.229C500.778 405.582 499.1 402.643 501.89 402.115C502.977 401.898 504.248 402.147 505.447 402.243C511.475 402.718 513.673 395.583 514.606 392.1C514.947 390.785 514.624 389.337 513.979 387.932C510.352 380.176 495.982 375.418 487.585 378.21C480.714 380.481 475.828 387.838 476.516 394.71Z" fill="#E7F44E"/>
<path d="M550.014 405.836C546.506 406.491 528.598 388.107 511.814 368.177L540.053 362.874C547.886 384.475 553.2 405.225 550.014 405.836Z" fill="#5A54FF"/>
<path d="M445.276 371.314C447.707 373.926 473.037 369.794 498.382 363.75L478.831 342.695C459.661 355.396 443.05 368.919 445.276 371.314Z" fill="#5A54FF"/>
<path d="M475.425 344.255C468.94 363.928 479.813 379.482 497.602 385.345C515.392 391.209 533.382 385.168 539.866 365.496C542.456 357.638 542.657 344.52 541.38 331.405L494.2 315.855C485.514 325.686 478.014 336.398 475.425 344.255Z" fill="#A7ADFF"/>
<path d="M528.953 290.228C523.097 288.298 507.29 301.064 494.207 315.836L541.386 331.386C539.505 311.704 534.309 291.994 528.953 290.228Z" fill="#5A54FF"/>
<path d="M523.636 391.306L473.154 374.667C470.129 373.67 468.223 371.146 468.913 369.052L469.527 367.188C470.217 365.094 473.251 364.199 476.276 365.196L526.758 381.835C529.783 382.832 531.689 385.356 530.999 387.45L530.385 389.313C529.688 391.427 526.661 392.303 523.636 391.306Z" fill="#978CFF"/>
<path d="M519.645 392.866L475.435 378.294C474.603 378.02 474.089 377.339 474.279 376.763L474.443 376.263C474.633 375.687 475.451 375.445 476.284 375.72L520.494 390.292C521.326 390.566 521.84 391.247 521.65 391.823L521.486 392.323C521.302 392.88 520.45 393.131 519.645 392.866Z" fill="#5A54FF"/>
<path d="M513.54 336.99C504.188 333.907 494.883 336.654 492.749 343.129C492.628 343.494 492.542 343.849 492.484 344.213C503.337 344.702 514.146 345.048 524.848 345.062C522.559 341.645 518.564 338.645 513.54 336.99Z" fill="white"/>
<path d="M492.512 344.222C491.319 350.453 497.024 357.509 505.849 360.418C515.202 363.5 524.507 360.753 526.641 354.278C527.629 351.281 526.891 348.014 524.882 345.052C514.139 345.067 503.337 344.702 492.512 344.222Z" fill="#E3E5FC"/>
<path d="M434.478 244.076C461.219 245.145 488.145 246.215 514.534 240.006C518.862 238.989 524.04 236.615 524.89 230.538C525.945 223.025 519.176 217.886 513.776 218.512C508.376 219.138 503.05 222.738 497.724 221.277C493.674 220.156 490.345 216.295 487.109 212.669C482.098 207.035 476.642 201.557 470.299 200.331C463.956 199.131 456.614 203.696 454.987 212.408C448.107 210.426 441.949 205.183 435.458 201.348C428.985 197.514 421.496 195.114 415.005 198.922C408.514 202.757 404.334 214.965 408.366 223.103C404.686 215.669 380.515 232.729 376.872 236.224C371.213 241.676 368.051 244.284 374.875 246.476C381.495 248.614 391.112 243.554 397.899 243.032C410.012 242.093 422.346 243.58 434.478 244.076Z" fill="white"/>
<path d="M538.478 66.0757C565.219 67.1452 592.145 68.2147 618.534 62.0064C622.862 60.9891 628.04 58.6153 628.89 52.5375C629.945 45.025 623.176 39.8862 617.776 40.5123C612.376 41.1383 607.05 44.7381 601.724 43.2773C597.674 42.1556 594.345 38.295 591.109 34.6692C586.098 29.0348 580.642 23.5569 574.299 22.3309C567.956 21.131 560.614 25.6959 558.987 34.4084C552.107 32.4259 545.949 27.1828 539.458 23.3483C532.985 19.5138 525.496 17.1139 519.005 20.9224C512.514 24.7569 508.334 36.9647 512.366 45.1033C508.686 37.669 484.515 54.7287 480.872 58.2241C475.213 63.6758 472.051 66.2844 478.875 68.4755C485.495 70.6145 495.112 65.554 501.899 65.0323C514.012 64.0932 526.346 65.5801 538.478 66.0757Z" fill="white"/>
<path d="M592.679 177.989C596.474 178.221 601.528 177.059 601.972 171.789C602.287 168.069 599.862 165.098 597.622 163.006C593.216 158.847 587.921 154.998 582.812 157.065C580.849 157.865 579.091 159.493 577.128 160.216C565.65 164.427 556.801 137.716 545.471 142.599C543.62 143.399 542.009 145.001 540.269 146.189C538.085 147.688 535.678 148.488 533.29 149.108C525.404 151.097 517.221 150.839 509.39 148.385C505.854 147.274 502.318 145.698 498.69 145.879C489.193 146.37 472.031 158.77 482.028 172.59C489.156 182.432 498.301 178.686 506.595 176.051C533.234 167.656 565.484 176.387 592.679 177.989Z" fill="white"/>
<path d="M526.679 122.989C530.474 123.221 535.528 122.059 535.972 116.789C536.287 113.069 533.862 110.098 531.622 108.006C527.216 103.847 521.921 99.9981 516.812 102.065C514.849 102.865 513.091 104.493 511.128 105.216C499.65 109.427 490.801 82.7164 479.471 87.5986C477.62 88.3994 476.009 90.001 474.269 91.1893C472.085 92.6876 469.678 93.4884 467.29 94.1083C459.404 96.0974 451.221 95.8391 443.39 93.385C439.854 92.2743 436.318 90.6985 432.69 90.8793C423.193 91.3701 406.031 103.77 416.028 117.59C423.156 127.432 432.301 123.686 440.595 121.051C467.234 112.656 499.484 121.387 526.679 122.989Z" fill="white"/>
</g>
<defs>
<clipPath id="clip0_50_8">
<rect width="587" height="450" fill="white"/>
</clipPath>
</defs>
</svg>
