<svg width="587" height="450" viewBox="0 0 587 450" fill="none" xmlns="http://www.w3.org/2000/svg">
<g clip-path="url(#clip0_50_8)">
<rect width="587" height="450" fill="#F0F0FD"/>
<path d="M464.973 220.976C458.226 220.862 449.002 217.474 450.088 209.447C451.008 202.616 458.863 201.307 464.312 203.442C469.762 205.576 475.47 209.476 480.825 207.028C482.972 206.06 484.812 204.125 487.077 203.669C489.436 203.214 491.865 204.466 494.201 203.812C497.598 202.901 499.579 198.346 502.906 197.122C508.449 195.073 514.63 203.128 519.654 199.627C522.792 197.436 523.122 192.283 523.83 187.985C526.614 171.59 542.348 160.29 555.629 165.129C572.968 171.476 581.956 198.916 599.978 201.022C607.456 201.904 638.312 194.788 632.674 216.677C629.183 230.198 593.09 222.94 583.866 222.797C544.259 222.228 504.628 221.602 464.973 220.976Z" fill="white"/>
<path d="M490.679 295.989C494.474 296.221 499.528 295.059 499.972 289.789C500.287 286.069 497.862 283.098 495.622 281.006C491.216 276.847 485.921 272.998 480.812 275.065C478.849 275.865 477.091 277.493 475.128 278.216C463.65 282.427 454.801 255.716 443.471 260.599C441.62 261.399 440.009 263.001 438.269 264.189C436.085 265.688 433.678 266.488 431.29 267.108C423.404 269.097 415.221 268.839 407.39 266.385C403.854 265.274 400.318 263.698 396.69 263.879C387.193 264.37 370.031 276.77 380.028 290.59C387.156 300.432 396.301 296.686 404.595 294.051C431.234 285.656 463.484 294.387 490.679 295.989Z" fill="white"/>
<path d="M456.204 349.056C451.637 350.261 446.916 351.558 443.49 354.387C438.781 358.255 442.055 363.827 442.504 368.789C442.752 371.76 442.737 373.787 441.188 376.379C439.898 378.557 435.652 379.904 436.853 383.081C438.585 387.503 444.415 387.178 445.58 392.947C446.552 397.689 444.129 402.061 445.792 406.817C447.522 411.738 451.667 416.528 452.079 421.727C452.491 427.176 445.744 432.762 450.763 438.125C453.414 440.996 458.485 440.991 461.736 439.067C468.496 435.055 471.878 424.545 475.301 418.255C476.882 415.317 480.736 412.059 483.594 414.427C485.394 415.912 483.914 429.831 490.444 424.53C491.727 423.491 492.146 421.846 492.497 420.286C493.013 418.102 492.986 415.455 494.054 413.453C497.963 406.183 501.433 402.727 501.386 393.689C501.378 392.723 501.527 391.525 502.519 391.245C503.057 391.102 503.631 391.22 504.195 391.37C507.688 392.307 511.57 393.801 514.443 391.288C517.547 388.567 513.749 384.463 513.354 381.194C513.422 381.858 521.851 387.169 523.093 388.363C522.22 381.585 516.929 374.813 510.606 370.803" fill="#D8951C"/>
<path d="M451.531 378.612C451.615 381.706 452.264 384.701 453.624 387.396C454.69 389.495 456.189 391.522 456.585 393.793C456.919 395.757 456.441 397.703 456.69 399.676C457.699 407.283 465.91 402.215 469.046 399.647C472.953 396.477 475.879 396.158 480.699 397.783C481.252 397.965 481.843 398.159 482.339 397.895C482.824 397.663 482.994 397.148 483.068 396.673C483.474 393.954 481.49 389.306 485.345 388.152C486.849 387.685 488.556 387.962 490.179 387.998C498.344 388.158 502.072 376.228 503.701 370.417C504.301 368.226 504.01 365.883 503.276 363.644C499.129 351.294 480.038 344.966 468.309 350.407C458.713 354.84 451.299 367.409 451.531 378.612Z" fill="#E7F44E"/>
<path d="M550.539 389.314C545.692 390.748 523.178 362.43 502.355 331.46L541.379 319.86C549.834 354.491 554.943 387.984 550.539 389.314Z" fill="#5A54FF"/>
<path d="M411.366 343.442C414.41 347.476 449.35 338.096 484.507 325.577L460.029 293.046C432.602 315.851 408.579 339.742 411.366 343.442Z" fill="#5A54FF"/>
<path d="M455.227 295.957C444.37 328.894 457.588 353.292 481.226 361.083C504.864 368.875 529.998 357.118 540.855 324.18C545.191 311.024 546.812 289.485 546.419 268.102L483.729 247.439C470.883 264.458 459.563 282.801 455.227 295.957Z" fill="#A7ADFF"/>
<path d="M533.716 201.83C525.935 199.266 503.085 221.831 483.739 247.406L546.43 268.07C545.888 235.975 540.834 204.176 533.716 201.83Z" fill="#5A54FF"/>
<path d="M516.088 368.188L449.009 346.078C444.989 344.753 442.651 340.809 443.806 337.303L444.835 334.183C445.99 330.677 450.216 328.896 454.235 330.22L521.315 352.33C525.334 353.655 527.673 357.6 526.517 361.106L525.489 364.226C524.322 367.764 520.107 369.513 516.088 368.188Z" fill="#978CFF"/>
<path d="M510.489 371.157L451.745 351.794C450.638 351.429 450.008 350.366 450.326 349.401L450.601 348.564C450.919 347.599 452.059 347.119 453.165 347.484L511.91 366.846C513.016 367.211 513.647 368.275 513.329 369.24L513.053 370.076C512.746 371.009 511.559 371.509 510.489 371.157Z" fill="#5A54FF"/>
<path d="M507.911 280.122C495.484 276.026 482.522 281.489 478.949 292.329C478.747 292.94 478.593 293.531 478.476 294.134C493.216 293.822 507.908 293.28 522.49 292.202C519.722 286.832 514.586 282.322 507.911 280.122Z" fill="white"/>
<path d="M478.513 294.146C476.249 304.49 483.297 315.479 495.024 319.344C507.452 323.44 520.413 317.977 523.986 307.138C525.64 302.12 524.97 296.835 522.538 292.182C507.897 293.312 493.216 293.822 478.513 294.146Z" fill="#E3E5FC"/>
<path d="M382.478 176.076C409.219 177.145 436.145 178.215 462.534 172.006C466.862 170.989 472.04 168.615 472.89 162.538C473.945 155.025 467.176 149.886 461.776 150.512C456.376 151.138 451.05 154.738 445.724 153.277C441.674 152.156 438.345 148.295 435.109 144.669C430.098 139.035 424.642 133.557 418.299 132.331C411.956 131.131 404.614 135.696 402.987 144.408C396.107 142.426 389.949 137.183 383.458 133.348C376.985 129.514 369.496 127.114 363.005 130.922C356.514 134.757 352.334 146.965 356.366 155.103C352.686 147.669 328.515 164.729 324.872 168.224C319.213 173.676 316.051 176.284 322.875 178.476C329.495 180.614 339.112 175.554 345.899 175.032C358.012 174.093 370.346 175.58 382.478 176.076Z" fill="white"/>
<path d="M519.679 88.9887C523.474 89.2212 528.528 88.0588 528.972 82.789C529.287 79.0692 526.862 76.0985 524.622 74.0061C520.216 69.8471 514.921 65.9981 509.812 68.0647C507.849 68.8655 506.091 70.4929 504.128 71.2162C492.65 75.4268 483.801 48.7164 472.471 53.5986C470.62 54.3994 469.009 56.001 467.269 57.1893C465.085 58.6876 462.678 59.4884 460.29 60.1083C452.404 62.0974 444.221 61.8391 436.39 59.385C432.854 58.2743 429.318 56.6985 425.69 56.8793C416.193 57.3701 399.031 69.7696 409.028 83.5898C416.156 93.4318 425.301 89.6862 433.595 87.0513C460.234 78.6558 492.484 87.3871 519.679 88.9887Z" fill="white"/>
</g>
<defs>
<clipPath id="clip0_50_8">
<rect width="587" height="450" fill="white"/>
</clipPath>
</defs>
</svg>
