<svg width="741" height="508" viewBox="0 0 741 508" fill="none" xmlns="http://www.w3.org/2000/svg">
<g clip-path="url(#clip0_11_209)">
<path d="M11.3628 224.805C11.3628 224.805 -52.2499 36.196 121.552 26.7272C295.354 17.2585 263.342 67.07 417.691 36.2982C572.039 5.52651 574.638 -15.7691 655.05 14.9953C735.461 45.7597 740.627 125.043 723.797 165.277C706.967 205.51 673.211 237.457 675.802 259.943C678.394 282.428 732.933 340.248 740.144 379.292C744.106 400.609 732.593 436.966 721.832 438.514C641.857 450.282 320.687 430.921 320.687 430.921L134.262 423.328L34.4767 410.808C34.4767 410.808 37.8919 358.076 37.5591 316.383C37.2184 273.66 11.3628 224.805 11.3628 224.805Z" fill="#F8F8FF"/>
<path d="M34.8412 404.997C34.8412 404.997 13.0981 487.763 132.4 482.134C251.701 476.505 250.283 464.299 325.56 485.887C400.837 507.474 447.706 515.928 505.939 499.028C564.171 482.127 565.589 484.93 639.432 484.93C713.274 484.93 738.559 412.341 740.485 402.434C742.759 390.753 737.442 352.44 726.888 352.323C648.838 351.447 165.395 347.717 127.281 357.434C94.5317 365.771 55.1739 393.469 36.2438 400.85" fill="white"/>
<path d="M49.1042 332.349L122.796 304.607L124.064 26.9243C124.064 26.9243 69.7062 30.1074 48.3118 49.0888L49.1042 332.349Z" fill="#E9EDFB"/>
<path d="M48.3118 49.0887L50.1105 331.984L37.2184 336.912C37.2184 336.912 39.0567 324.041 35.8872 296.095C32.9712 270.047 3.01899 206.839 0.768608 182.688C-0.816164 165.569 0.063385 95.6953 18.5973 74.9545C35.7049 55.8125 48.3118 49.0887 48.3118 49.0887Z" fill="#E9EDFB"/>
<path d="M87.7767 131.491C96.1837 130.142 102.177 124.701 101.164 119.338C100.15 113.976 92.5128 110.722 84.1057 112.072C75.6986 113.421 69.7051 118.861 70.7188 124.224C71.7325 129.586 79.3696 132.84 87.7767 131.491Z" fill="white"/>
<path d="M104.953 126.726C111.812 125.625 116.703 121.188 115.876 116.814C115.049 112.441 108.818 109.788 101.959 110.889C95.0996 111.989 90.2092 116.427 91.036 120.8C91.8627 125.174 98.0935 127.827 104.953 126.726Z" fill="white"/>
<path d="M18.0384 165.798C26.4455 164.449 32.439 159.008 31.4253 153.645C30.4116 148.283 22.7745 145.029 14.3675 146.378C5.96038 147.728 -0.0331396 153.168 0.98057 158.531C1.99428 163.893 9.63134 167.147 18.0384 165.798Z" fill="white"/>
<path d="M32.8414 156.655C39.7007 155.555 44.5911 151.117 43.7643 146.744C42.9376 142.37 36.7068 139.717 29.8475 140.818C22.9882 141.919 18.0978 146.356 18.9245 150.73C19.7513 155.103 25.982 157.756 32.8414 156.655Z" fill="white"/>
<path d="M54.6033 44.5113L58.3434 42.5913L58.5177 42.511L60.8473 41.4378L63.074 40.5106L66.6872 325.64L58.9377 328.604L54.6033 44.5113Z" fill="white"/>
<path d="M26.1963 260.753L25.3326 258.066C25.1979 258.161 24.6591 256.117 24.6115 256.081L23.6211 253.89L22.7257 251.51L123.256 216.519L123.588 224.301L26.1963 260.753Z" fill="white"/>
<path d="M1.74323 188.711L1.45799 187.142C1.26781 186.682 1.05389 184.871 0.887491 184.441L0.475435 181.447L0.11092 179.257L124.088 135.6L123.715 143.266L1.74323 188.711Z" fill="white"/>
<path d="M337.121 292.123C339.792 288.929 341.534 285.16 342.184 281.173C342.913 276.318 344.823 270.127 349.656 265.885C357.002 259.424 358.087 232.303 358.238 222.243C358.277 218.443 358.926 214.669 360.163 211.044C362.358 204.685 366.851 195.88 375.567 191.632C384.45 187.302 412.809 185.528 421.082 191.872C437.92 204.816 435.567 221.805 435.828 224.499C437.104 237.216 436.32 246.495 443.34 254.475C450.361 262.454 458.3 272.215 456.232 282.1C454.164 291.985 472.635 306.564 452.421 312.645C432.207 318.727 411.55 322.932 389.03 321.274C369.078 319.814 341.796 316.828 336.431 304.666C333.769 298.584 335.108 294.591 337.121 292.123Z" fill="#E9EDFA"/>
<path d="M342.152 290.539C343.087 289.298 344.3 287.444 346.455 286.473C348.61 285.502 352.929 282.655 374.228 290.744C404.648 302.3 429.695 288.203 432.072 287.926C434.45 287.648 455.931 281.443 455.337 294.408C454.743 307.374 429.386 314.426 421.637 314.711C413.887 314.996 381.97 317.814 366.17 313.587C350.369 309.36 344.355 303.782 343.286 302.395C342.113 300.877 338.206 295.766 342.152 290.539Z" fill="#BAC5F4"/>
<path d="M344.189 384.869H345.702C346.364 384.88 347.02 384.768 347.634 384.54C348.247 384.312 348.804 383.973 349.272 383.543C349.74 383.112 350.11 382.599 350.358 382.034C350.606 381.47 350.729 380.865 350.718 380.255L350.591 373.648C350.584 373.281 350.459 372.923 350.232 372.621C350.005 372.318 349.686 372.084 349.315 371.947L348.816 371.765C348.478 371.643 348.182 371.44 347.959 371.177C347.735 370.913 347.593 370.599 347.547 370.268C347.5 369.936 347.552 369.599 347.696 369.292C347.84 368.985 348.071 368.72 348.365 368.523C348.694 368.323 349.047 368.158 349.419 368.034C352.754 366.881 359.791 363.136 378.341 361.405C388.467 360.464 393.665 360.157 396.304 360.069C396.612 360.059 396.913 359.985 397.184 359.852C397.456 359.718 397.691 359.53 397.872 359.301C398.053 359.071 398.175 358.807 398.229 358.528C398.282 358.249 398.266 357.962 398.182 357.689C398.05 357.263 397.757 356.893 397.357 356.647C396.956 356.401 396.473 356.294 395.995 356.346C389.49 357.076 366.328 359.653 358.753 361.274C354.278 362.297 350.001 363.952 346.075 366.18C345.325 366.612 344.689 367.194 344.216 367.883C343.743 368.571 343.444 369.349 343.341 370.159C343.316 370.434 343.225 370.701 343.074 370.939C342.924 371.178 342.717 371.383 342.469 371.539C341.712 372.013 340.892 372.396 340.029 372.677C338.777 373.064 338.801 377.058 339.046 380.387C339.132 381.594 339.71 382.726 340.663 383.557C341.617 384.389 342.876 384.857 344.189 384.869Z" fill="#A2B7ED"/>
<path d="M456.518 384.869H455.432C454.716 384.882 454.005 384.762 453.34 384.516C452.676 384.269 452.072 383.902 451.566 383.436C451.059 382.97 450.659 382.414 450.391 381.802C450.123 381.191 449.991 380.535 450.004 379.876L450.123 373.648C450.13 373.281 450.253 372.925 450.479 372.622C450.704 372.32 451.021 372.085 451.391 371.947L451.89 371.765C452.226 371.643 452.521 371.439 452.743 371.177C452.965 370.914 453.106 370.601 453.152 370.271C453.199 369.94 453.148 369.605 453.005 369.299C452.862 368.993 452.633 368.727 452.342 368.531C452.013 368.327 451.66 368.16 451.288 368.034C447.984 366.881 440.987 363.136 422.627 361.405C412.611 360.464 407.461 360.157 404.846 360.069C404.539 360.059 404.239 359.984 403.968 359.852C403.698 359.719 403.463 359.531 403.282 359.303C403.101 359.074 402.979 358.811 402.925 358.533C402.87 358.255 402.885 357.969 402.968 357.697C403.099 357.267 403.392 356.895 403.794 356.648C404.197 356.4 404.682 356.293 405.163 356.346C411.637 357.076 434.553 359.653 442.017 361.274C446.449 362.301 450.68 363.956 454.56 366.18C455.304 366.616 455.933 367.199 456.4 367.887C456.868 368.576 457.162 369.352 457.262 370.159C457.287 370.434 457.379 370.7 457.529 370.939C457.68 371.178 457.887 371.382 458.134 371.538C458.87 372.01 459.669 372.393 460.511 372.677C461.763 373.064 461.723 377.16 461.478 380.474C461.395 381.645 460.841 382.745 459.923 383.558C459.005 384.371 457.79 384.839 456.518 384.869Z" fill="#A2B7ED"/>
<path d="M397.39 324.253L397.231 379.525C397.231 379.874 397.081 380.208 396.813 380.454C396.546 380.701 396.183 380.839 395.805 380.839H395.488C395.297 380.839 395.108 380.874 394.933 380.943C394.757 381.011 394.598 381.111 394.465 381.237C394.332 381.363 394.228 381.512 394.159 381.676C394.089 381.84 394.056 382.014 394.062 382.19L394.315 391.52C394.346 392.625 394.838 393.676 395.69 394.455C396.542 395.233 397.688 395.677 398.887 395.696L402.057 395.74C402.705 395.751 403.348 395.64 403.948 395.414C404.548 395.188 405.091 394.851 405.545 394.425C405.998 393.998 406.352 393.491 406.585 392.933C406.818 392.376 406.924 391.781 406.898 391.184L406.534 382.11C406.521 381.769 406.366 381.446 406.099 381.209C405.833 380.972 405.478 380.839 405.107 380.839C404.919 380.839 404.733 380.805 404.56 380.739C404.386 380.672 404.229 380.575 404.096 380.452C403.964 380.329 403.859 380.183 403.787 380.023C403.716 379.863 403.68 379.691 403.681 379.518L403.847 322.837C403.849 322.662 403.812 322.489 403.74 322.328C403.668 322.167 403.561 322.02 403.427 321.897C403.293 321.774 403.133 321.677 402.958 321.612C402.782 321.546 402.595 321.513 402.405 321.515H398.768C398.576 321.516 398.386 321.553 398.21 321.623C398.034 321.693 397.874 321.795 397.742 321.923C397.609 322.051 397.506 322.203 397.439 322.369C397.372 322.534 397.341 322.711 397.35 322.888L397.39 324.253Z" fill="#A2B7ED"/>
<path d="M397.437 364.318C397.437 364.318 348.967 382.299 341.32 388.264C333.674 394.229 332.422 398.003 332.771 399.602C332.771 399.77 333.064 399.894 333.436 399.974C334.354 400.21 335.16 400.724 335.725 401.432C336.289 402.14 336.58 403.002 336.55 403.88L336.376 413.283C336.361 413.979 336.051 414.643 335.512 415.132C334.973 415.62 334.248 415.895 333.492 415.896H328.024C327.265 415.897 326.537 415.622 325.996 415.132C325.455 414.641 325.144 413.975 325.132 413.276L324.958 403.931C324.938 402.968 325.298 402.031 325.971 401.294C326.644 400.556 327.585 400.069 328.618 399.923H328.713C328.713 399.923 330.615 392.856 333.555 390.432C336.495 388.008 341.653 382.599 361.946 374.466C382.239 366.333 397.421 361.208 397.421 361.208L397.437 364.318Z" fill="#BAC5F4"/>
<path d="M403.602 363.625C403.598 363.916 403.689 364.201 403.863 364.445C404.036 364.688 404.285 364.878 404.577 364.99C411.233 367.618 449.917 383.03 456.525 388.476C463.76 394.44 464.941 398.215 464.616 399.813C464.544 400.178 463.475 400.324 462.516 400.376C462.1 400.395 461.708 400.564 461.427 400.847C461.145 401.129 460.995 401.503 461.01 401.887L461.185 411.859C461.203 412.996 461.707 414.08 462.586 414.878C463.465 415.676 464.65 416.123 465.883 416.123H467.254C468.476 416.123 469.65 415.681 470.521 414.891C471.393 414.102 471.893 413.029 471.914 411.903L472.096 401.967C472.1 401.614 471.965 401.271 471.716 401.003C471.466 400.734 471.12 400.558 470.741 400.507L469.544 400.324C469.237 400.282 468.951 400.158 468.72 399.968C468.489 399.777 468.324 399.528 468.245 399.251C467.658 397.258 466.082 392.557 463.918 390.659C461.137 388.22 456.256 382.825 437.049 374.692C422.334 368.465 410.527 364.012 405.821 362.281C405.576 362.184 405.308 362.146 405.043 362.169C404.777 362.192 404.522 362.277 404.302 362.416C404.081 362.554 403.902 362.741 403.781 362.96C403.66 363.179 403.601 363.423 403.61 363.669L403.602 363.625Z" fill="#BAC5F4"/>
<path d="M137.851 406.085L138.644 279.055H156.869V406.815L137.851 406.085Z" fill="white"/>
<path d="M558.672 276.792L559.401 407.545H575.249L575.597 277.325L558.672 276.792Z" fill="white"/>
<path d="M82.3844 263.724V279.055L627.546 277.595V264.454L82.3844 263.724Z" fill="white"/>
<path d="M82.3844 263.724L121.211 252.773L583.172 253.504L627.546 264.454L82.3844 263.724Z" fill="#BAC5F4"/>
<path d="M329.989 259.483L339.125 254.358L381.201 254.102L374.854 259.081L329.989 259.483Z" fill="#F8F8FF"/>
<path d="M120.482 225.689C120.482 225.689 113.597 225.397 112.709 227.441C111.822 229.485 114.294 257.373 115.371 259.023C116.449 260.673 127.424 261.155 130.53 261.155C130.53 261.155 142.027 260.213 142.59 259.49C143.153 258.767 150.95 229.93 148.398 226.076C145.847 222.221 120.879 225.784 120.879 225.784" fill="#E9EDFC"/>
<path d="M112.146 232.244C112.146 232.244 133.541 233.756 136.069 233.091C138.596 232.427 137.764 226.521 137.764 226.521L148.398 226.083C148.398 226.083 148.398 231.763 147.677 232.434C146.873 233.323 146.258 234.344 145.862 235.442C145.862 235.778 141.37 259.935 141.37 259.935C141.37 259.935 134.484 260.914 133.573 260.811C132.495 260.687 136.441 240.83 136.441 239.45C136.441 238.07 136.441 235.442 135.355 235.442C134.27 235.442 113.295 236.026 113.169 233.865C112.987 233.256 112.634 232.703 112.146 232.259" fill="#BAC4F6"/>
<path d="M120.569 226.316C120.569 226.316 114.603 222.454 111.433 222.104C108.264 221.754 104.571 221.381 101.402 220.921C98.2321 220.461 94.1909 219.162 94.2702 217.454C94.3494 215.745 94.7298 214.928 96.5919 213.913C98.162 212.971 99.9407 212.365 101.798 212.139C103.192 212.022 117.503 215.446 123.47 223.63L125.847 226.316H120.569Z" fill="#BAC4F6"/>
<path d="M99.9278 216.775C99.9278 216.775 105.411 216.709 108.414 217.607C110.765 218.415 113.043 219.391 115.229 220.527L124.207 226.287" fill="#BAC4F6"/>
<path d="M99.9278 216.775C99.9278 216.775 105.411 216.709 108.414 217.607C110.765 218.415 113.043 219.391 115.229 220.527L124.207 226.287" stroke="white" stroke-width="0.75" stroke-miterlimit="10" stroke-linecap="round"/>
<path d="M126.869 226.097C126.869 226.097 119.928 217.41 117.226 214.964C114.524 212.518 111.362 209.722 108.755 207.167C106.148 204.612 102.86 200.947 104.246 199.443C105.633 197.939 106.624 196.917 109.151 197.253C111.127 197.448 113.02 198.093 114.658 199.129C116.061 199.961 128.66 211.036 130.506 223.761L132.321 226.338L126.869 226.097Z" fill="#BAC4F6"/>
<path d="M110.554 202.4C110.554 202.4 115.958 205.379 118.081 208.24C120.086 210.912 123.264 215.694 123.264 215.694L126.869 224.813" stroke="white" stroke-width="0.75" stroke-miterlimit="10" stroke-linecap="round"/>
<path d="M130.324 226.492C130.324 226.492 122.218 210.277 120.704 207.072C119.191 203.867 113.002 199.042 111.631 195.771C110.261 192.5 109.389 190.12 110.839 188.324C112.289 186.529 116.021 185.039 118.39 186.134C120.633 187.142 123.549 190.208 124.801 191.763C125.791 192.989 132.431 215.015 131.885 220.096L133.153 226.601L130.324 226.492Z" fill="#E9EDFC"/>
<path d="M116.045 192.179C116.045 192.179 120.696 197.698 122.107 200.94C123.691 204.59 125.276 211.547 125.07 210.43L129.928 225.448" stroke="white" stroke-width="0.75" stroke-miterlimit="10" stroke-linecap="round"/>
<path d="M125.879 226.404C125.879 226.404 118.747 218.906 115.268 217.454C111.79 216.001 107.836 214.358 104.437 212.796C101.037 211.234 96.9564 208.583 97.6458 206.992C98.3352 205.4 99.0483 204.758 101.497 204.459C103.643 204.124 105.839 204.179 107.963 204.619C109.547 204.999 124.444 213.292 128.271 223.141L130.039 226.535L125.879 226.404Z" fill="#E9EDFC"/>
<path d="M104.223 208.343C104.223 208.343 110.395 210.211 113.454 212.124C115.789 213.699 118.002 215.421 120.078 217.278L126.932 226.492" stroke="white" stroke-width="0.75" stroke-miterlimit="10" stroke-linecap="round"/>
<path d="M144.531 226.572C144.531 226.572 150.989 222.922 154.42 222.549C157.851 222.177 161.829 221.863 165.26 221.418C168.691 220.972 173.065 219.739 172.978 218.103C172.891 216.468 172.487 215.694 170.466 214.716C168.731 213.807 166.815 213.23 164.832 213.022C163.319 212.913 147.835 216.176 141.378 223.973L138.771 226.543L144.531 226.572Z" fill="#BAC4F6"/>
<path d="M166.877 217.454C166.877 217.454 160.949 217.388 157.693 218.249C155.167 219.01 152.705 219.937 150.324 221.024L141.71 226.353" fill="#BAC4F6"/>
<path d="M166.877 217.454C166.877 217.454 160.949 217.388 157.693 218.249C155.167 219.01 152.705 219.937 150.324 221.024L141.71 226.353" stroke="white" stroke-width="0.75" stroke-miterlimit="10" stroke-linecap="round"/>
<path d="M137.725 226.36C137.725 226.36 145.229 218.067 148.152 215.731C151.076 213.394 154.492 210.722 157.32 208.284C160.149 205.846 163.699 202.349 162.194 200.903C160.688 199.458 159.626 198.487 156.885 198.793C154.778 198.969 152.741 199.58 150.926 200.582C149.412 201.371 135.775 211.956 133.779 224.104L131.821 226.565L137.725 226.36Z" fill="#BAC4F6"/>
<path d="M155.379 203.707C155.379 203.707 149.531 206.547 147.233 209.255C145.062 211.81 141.631 216.373 141.631 216.373L137.725 225.075" stroke="white" stroke-width="0.75" stroke-miterlimit="10" stroke-linecap="round"/>
<path d="M133.977 226.769C133.977 226.769 142.748 211.285 144.381 208.218C146.013 205.152 152.717 200.567 154.198 197.428C155.68 194.289 156.623 192.026 155.07 190.318C153.517 188.609 149.468 187.178 146.9 188.2C144.476 189.164 141.354 192.092 139.959 193.574C138.882 194.749 131.703 215.774 132.289 220.637L130.918 226.849L133.977 226.769Z" fill="#E9EDFC"/>
<path d="M133.145 226.572C133.145 226.572 133.85 211.467 135.522 206.554C136.655 203.298 137.764 197.793 139.246 194.691C140.728 191.588 138.454 187.507 136.932 185.791C135.411 184.076 131.386 184.404 128.787 185.419C126.362 186.383 124.967 189.5 124.658 191.164C124.381 192.683 130.205 210.912 129.587 217.585L130.086 226.667L133.145 226.572Z" fill="#BAC4F6"/>
<path d="M149.428 193.96C149.428 193.96 144.397 199.231 142.867 202.32C141.14 205.817 139.42 212.453 139.698 211.358L134 226.105" stroke="white" stroke-width="0.75" stroke-miterlimit="10" stroke-linecap="round"/>
<path d="M138.794 226.652C138.794 226.652 146.552 219.49 150.268 218.103C153.984 216.716 158.311 215.183 161.988 213.657C165.664 212.131 170.078 209.635 169.333 208.116C168.588 206.598 167.819 205.984 165.165 205.692C162.84 205.373 160.474 205.425 158.168 205.846C156.425 206.211 140.34 214.125 136.195 223.535L134.286 226.776L138.794 226.652Z" fill="#E9EDFC"/>
<path d="M162.225 209.408C162.225 209.408 155.538 211.197 152.233 213.015C149.739 214.505 147.356 216.149 145.102 217.935L137.542 225.659" stroke="white" stroke-width="0.75" stroke-miterlimit="10" stroke-linecap="round"/>
<path d="M131.512 188.646C131.512 188.646 132.851 201.59 132.075 205.072C131.75 206.532 131.909 215.636 131.909 215.636L131.631 225.762" stroke="white" stroke-width="0.75" stroke-miterlimit="10" stroke-linecap="round"/>
<path d="M348.626 182.878H261.559V245.853H348.626V182.878Z" fill="white"/>
<path d="M303.246 219.68C306.135 219.68 308.476 217.523 308.476 214.862C308.476 212.201 306.135 210.044 303.246 210.044C300.358 210.044 298.016 212.201 298.016 214.862C298.016 217.523 300.358 219.68 303.246 219.68Z" fill="white"/>
<path d="M297.803 244.356C297.803 244.356 299.99 249.663 297.493 251.153C294.997 252.642 279.586 258.242 279.586 258.242C279.586 258.242 278.445 259.928 281.17 260.468C283.603 260.957 314.855 260.57 321.582 260.468C322.051 260.498 322.518 260.393 322.92 260.168C323.321 259.944 323.637 259.61 323.824 259.213C323.983 258.694 323.785 258.125 322.588 257.752C320.52 257.066 312.913 253.248 309.585 251.598C308.413 251.014 308.096 249.89 307.866 248.86C307.486 247.203 307.2 245.371 308.468 245.02C310.449 244.473 297.921 245.188 297.921 245.188" fill="white"/>
<path d="M231.781 176.417L458.261 176.081L457.801 141.178L218.944 142.879L218.802 176.417H231.781Z" fill="#E9EDFA"/>
<path d="M345.068 147.441V171.475L451.628 171.139V147.777L345.068 147.441Z" fill="#BAC5F4"/>
<path d="M231.163 147.441V171.475L337.723 171.139V147.777L231.163 147.441Z" fill="#BAC5F4"/>
<path d="M231.171 153.231H236.725L236.781 171.533L231.163 171.475L231.171 153.231Z" fill="white"/>
<path d="M236.828 156.436H240.568L240.703 171.453L236.781 171.533L236.828 156.436Z" fill="white"/>
<path d="M330.813 153.092H334.078L334.11 171.387L330.813 171.336V153.092Z" fill="white"/>
<path d="M334.157 156.297H337.897L338.032 171.314L334.11 171.387L334.157 156.297Z" fill="white"/>
<path d="M240.87 154.085H244.61L244.744 171.497L240.822 171.584L240.87 154.085Z" fill="white"/>
<path d="M244.53 158.268L246.448 156.852L256.155 169.913L254.063 171.475L244.53 158.268Z" fill="white"/>
<path d="M289.839 171.387H313.199L313.08 168.971L289.839 169.088V171.387Z" fill="white"/>
<path d="M293.769 169.022H317.137L317.01 166.605L293.769 166.722V169.022Z" fill="#E9EDFA"/>
<path d="M348.808 152.355H352.089L352.121 171.614L348.8 171.555L348.808 152.355Z" fill="white"/>
<path d="M352.16 156.458H355.892L356.027 171.468L352.105 171.548L352.16 156.458Z" fill="white"/>
<path d="M444.545 152.997H447.809L447.841 171.292L444.545 171.241V152.997Z" fill="white"/>
<path d="M447.793 155.939L451.684 155.976L451.834 171.146L447.857 171.197L447.793 155.939Z" fill="white"/>
<path d="M440.812 157.465H444.552L444.703 171.285L440.717 171.329L440.812 157.465Z" fill="white"/>
<path d="M345.037 154.129H348.777L348.911 171.541L344.989 171.628L345.037 154.129Z" fill="white"/>
<path d="M383.792 158.319L385.71 156.903L395.417 169.964L393.325 171.526L383.792 158.319Z" fill="white"/>
<path d="M367.96 171.438H391.328L391.201 169.022L367.96 169.139V171.438Z" fill="white"/>
<path d="M366.677 169.161H390.036L389.909 166.744L366.677 166.861V169.161Z" fill="#E9EDFA"/>
<path d="M458.047 139.404L457.817 111.435H670.169L670.692 178.264L458.229 179.863L458.047 141.893" fill="#E9EDFA"/>
<path d="M306.804 123.145C306.804 123.145 304.76 122.517 304.593 122.05C304.427 121.583 303.745 118.911 305.1 118.911H316.685C316.685 118.911 318.555 121.736 316.178 122.364C313.801 122.992 315.837 124.087 316.519 124.087C317.2 124.087 318.729 124.087 319.07 124.868C319.411 125.649 319.387 142.112 319.387 142.112H302.208V126.131C302.204 125.904 302.249 125.678 302.342 125.467C302.434 125.256 302.572 125.065 302.746 124.904C302.921 124.743 303.129 124.617 303.358 124.531C303.586 124.446 303.831 124.404 304.078 124.408C305.956 124.401 307.319 123.934 306.804 123.145Z" fill="#E9EDFA"/>
<path d="M316.796 129.475H304.744V136.359H316.796V129.475Z" fill="white"/>
<path d="M326.439 123.145C326.439 123.145 324.395 122.517 324.229 122.05C324.062 121.583 323.381 118.911 324.736 118.911H336.32C336.32 118.911 338.19 121.736 335.813 122.364C333.436 122.992 335.473 124.087 336.154 124.087C336.835 124.087 338.365 124.087 338.705 124.868C339.046 125.649 339.022 142.112 339.022 142.112H321.843V126.131C321.839 125.904 321.885 125.678 321.977 125.467C322.07 125.256 322.207 125.065 322.382 124.904C322.556 124.743 322.764 124.617 322.993 124.531C323.222 124.446 323.467 124.404 323.714 124.408C325.647 124.401 326.978 123.934 326.439 123.145Z" fill="#BAC5F4"/>
<path d="M336.455 129.475H324.403V136.359H336.455V129.475Z" fill="white"/>
<path d="M346.772 122.948C346.772 122.948 344.728 122.32 344.561 121.853C344.395 121.386 343.713 118.714 345.068 118.714H356.653C356.653 118.714 358.523 121.539 356.146 122.167C353.769 122.795 355.805 123.89 356.487 123.89C357.168 123.89 358.697 123.89 359.038 124.671C359.379 125.452 359.355 141.915 359.355 141.915H342.176V125.934C342.172 125.707 342.217 125.481 342.31 125.27C342.402 125.059 342.54 124.868 342.714 124.707C342.889 124.546 343.097 124.419 343.326 124.334C343.554 124.249 343.799 124.207 344.046 124.211C345.916 124.204 347.279 123.737 346.772 122.948Z" fill="#E9EDFA"/>
<path d="M356.764 129.27H344.712V136.155H356.764V129.27Z" fill="white"/>
<path d="M563.466 118.232H465.353V173.439H563.466V118.232Z" fill="#BAC5F4"/>
<path d="M573.973 151.209C576.336 151.209 578.252 149.444 578.252 147.266C578.252 145.089 576.336 143.324 573.973 143.324C571.61 143.324 569.694 145.089 569.694 147.266C569.694 149.444 571.61 151.209 573.973 151.209Z" fill="#BAC5F4"/>
<path d="M530.875 154.494C530.875 154.494 528.831 153.866 528.664 153.399C528.498 152.931 527.816 150.259 529.171 150.259H540.756C540.756 150.259 542.626 153.085 540.249 153.713C537.872 154.34 539.908 155.436 540.59 155.436C541.271 155.436 542.8 155.436 543.141 156.217C543.482 156.998 543.458 173.461 543.458 173.461H526.279V157.472C526.275 157.245 526.32 157.019 526.413 156.808C526.505 156.598 526.643 156.406 526.817 156.245C526.992 156.085 527.2 155.958 527.428 155.873C527.657 155.787 527.902 155.746 528.149 155.749C530.003 155.749 531.366 155.275 530.875 154.494Z" fill="white"/>
<path d="M540.843 160.816H528.791V167.7H540.843V160.816Z" fill="white"/>
<g clip-path="url(#clip1_11_209)">
<path d="M576.614 439.422C574.247 438.108 571.457 436.43 564.525 435.263C558.861 434.387 555.479 426.726 555.479 426.726H542.292C542.292 426.726 541.108 439.422 541.7 440.443C542.292 441.464 542.63 442.559 545.673 443.361C548.716 444.164 575.43 443.872 576.614 443.653C577.797 443.434 581.094 441.902 576.614 439.422Z" fill="#4B49BB"/>
<path d="M423.263 317.357C421.488 319.619 413.71 341.653 413.626 342.748C413.541 343.842 414.218 346.979 418.275 344.061C420.473 342.456 423.179 340.705 426.476 335.305C429.181 330.928 438.649 330.417 438.649 330.417L442.707 319.619C442.707 319.619 429.012 314.803 427.659 314.949C426.306 315.095 425.038 315.095 423.263 317.357Z" fill="#4B49BB"/>
<path d="M510.083 277.374C509.745 277.447 509.322 279.563 509.237 279.855C507.293 285.254 488.948 333.408 488.948 335.451C488.948 337.494 449.639 322.172 443.298 319.765C442.791 319.546 442.284 319.765 442.03 320.129C440.762 322.464 437.127 329.395 438.395 330.198C440.001 331.147 481.34 356.61 484.722 357.34C488.103 358.069 493.175 361.717 501.629 352.962C508.899 345.447 529.188 316.992 534.852 309.039C535.106 308.674 535.698 308.529 536.12 308.747C536.374 308.893 536.543 309.112 536.627 309.404C537.642 317.065 538.065 346.76 541.023 354.713C543.982 362.666 539.755 371.202 539.755 382.876L542.207 425.851C542.207 426.288 542.63 426.653 543.137 426.653L554.549 426.872C555.057 426.872 555.479 426.58 555.564 426.142C556.325 419.211 563.849 367.263 564.609 359.164C565.455 350.408 570.358 276.936 569.005 272.486C567.991 269.713 516.339 276.498 510.083 277.374Z" fill="url(#paint0_linear_11_209)"/>
<path d="M514.31 148.013C514.31 148.013 517.184 138.09 519.466 138.09C521.749 138.09 535.613 139.55 537.304 146.554C538.995 153.558 545.335 157.498 545.335 165.962C545.335 174.425 549.393 178.365 549.393 178.365C549.393 178.365 553.958 165.889 557.339 160.49C560.721 155.09 566.723 151.661 566.723 148.013C566.723 144.365 561.651 102.923 561.228 101.829C560.805 100.734 559.537 94.1676 562.496 90.4466C562.496 90.4466 571.626 83.953 572.81 81.3264C573.739 79.1375 576.698 77.8972 578.389 80.4508C580.08 83.0045 573.063 89.9358 571.88 92.7084C570.865 95.335 570.104 98.0346 569.766 100.807C569.766 101.537 568.075 112.554 568.075 118.026C568.075 123.498 571.88 140.79 571.88 146.262C571.88 151.734 557.846 173.696 556.578 177.781C555.31 181.867 514.479 220.318 513.633 221.412C512.788 222.507 508.561 230.97 508.561 233.889C508.561 236.807 508.561 246.365 510.252 244.541C511.943 242.717 518.959 228.125 520.227 226.301C521.495 224.477 531.555 222.726 536.289 221.631C541.023 220.537 547.956 222.726 547.11 225.279C546.265 227.833 532.485 232.649 528.089 233.597C525.299 234.181 513.211 245.709 512.365 248.992C511.52 252.275 500.445 247.533 500.445 242.79C500.445 238.048 501.714 213.824 503.404 210.541C505.095 207.258 512.788 192.957 517.015 185.588C521.242 178.219 511.943 174.571 510.252 169.464C508.561 164.357 514.31 148.013 514.31 148.013Z" fill="url(#paint1_linear_11_209)"/>
<path d="M550.83 171.434C550.83 171.434 561.904 154.288 563.003 149.983C564.102 145.678 561.312 101.683 561.312 101.683L569.851 100.588C569.851 100.588 578.051 141.374 579.15 146.116C580.249 150.859 576.276 161.073 572.471 166.837C568.667 172.601 558.185 196.752 558.185 199.597C558.185 202.443 558.861 229.511 560.552 234.764C562.242 240.018 569.09 272.632 569.09 272.632L509.914 277.447C509.914 277.447 512.534 263.219 512.365 258.477C511.943 248.043 508.646 240.31 517.438 235.421C523.355 232.211 528.935 233.743 535.275 231.043C542.63 227.906 544.32 225.352 544.743 223.601C544.997 222.58 543.137 220.245 531.724 223.893C527.92 225.134 520.227 225.061 520.058 229.292C519.974 232.867 525.299 240.601 518.875 244.104C518.875 244.104 511.52 259.061 504.672 261.395C498.755 263.365 491.738 257.966 491.907 250.889C492.076 242.425 492.668 226.228 497.149 219.151C501.629 212.073 513.887 193.906 516.085 192.447C518.283 190.988 524.961 197.919 532.739 196.97C540.516 196.022 543.729 192.885 545.419 189.601C547.11 186.318 550.83 171.434 550.83 171.434Z" fill="url(#paint2_linear_11_209)"/>
<path d="M526.145 140.279C529.611 145.095 534.091 149.254 539.333 152.683C548.294 158.666 539.417 175.301 538.995 183.618C538.656 190.258 543.221 199.451 554.296 205.653C562.242 210.176 556.663 220.391 556.663 225.498C556.663 230.606 569.513 218.275 570.02 212.438C570.612 205.215 568.498 200.108 562.58 194.271C557.086 188.799 550.661 168.296 548.885 158.593C548.716 157.571 548.632 156.623 548.716 155.601C548.885 152.172 548.378 141.301 537.05 135.172C523.524 127.876 515.07 134.588 509.576 138.601C502.897 143.49 500.192 157.133 501.883 178.292C503.573 199.451 499.346 211.49 496.472 217.618C489.878 231.554 507.8 221.777 511.097 213.752C515.324 203.464 518.283 202.661 524.285 194.636C526.652 191.498 523.524 180.846 520.904 176.395C515.916 167.786 513.042 164.211 513.042 158.374C513.042 152.537 521.073 142.468 526.145 140.279Z" fill="url(#paint3_linear_11_209)"/>
<path opacity="0.07" d="M528.766 178.073C528.766 178.073 538.318 178.584 540.939 173.331C541.193 172.747 539.417 189.382 538.91 187.194C538.234 184.932 528.766 178.073 528.766 178.073Z" fill="black"/>
<path opacity="0.07" d="M511.943 216.524C511.943 216.524 509.745 228.344 508.561 233.743C507.885 236.661 507.462 239.58 507.378 242.571C507.378 242.571 515.493 233.816 518.114 230.314C519.72 228.125 514.817 229.219 514.394 221.194C513.971 213.168 514.056 207.988 514.056 207.988L511.943 216.524Z" fill="black"/>
<path opacity="0.07" d="M512.619 254.537C512.619 254.537 519.889 248.408 520.227 245.198C520.65 240.966 524.116 241.185 524.116 243.812C524.116 246.438 518.706 266.065 522.003 271.245C525.299 276.425 527.92 276.353 527.92 276.353L510.167 277.447L512.619 254.537Z" fill="black"/>
<path opacity="0.07" d="M527.836 276.28C527.836 276.28 528.85 291.893 522.425 297.074C509.322 307.653 517.015 321.516 511.182 327.571C506.279 332.606 505.011 347.125 493.26 350.335C488.61 351.649 471.872 342.82 468.49 341.799C461.305 339.683 456.232 327.79 433.83 321.662C428.589 320.202 447.61 321.735 447.61 321.735L488.864 336.473L510.167 277.447L527.836 276.28Z" fill="black"/>
</g>
<g clip-path="url(#clip2_11_209)">
<path d="M543.136 72.5802L549.635 72.1159C549.635 72.1159 550.935 63.7585 556.135 60.9727V51.6866C556.135 51.6866 562.201 55.401 563.501 55.8653C564.801 56.3297 576.499 50.2937 589.931 59.1155C601.244 66.5443 598.727 79.5772 597.648 83.5005C597.454 84.211 597.149 84.8812 596.747 85.4831C595.811 86.876 593.917 89.6618 592.964 90.6879C591.664 92.0808 593.792 99.8346 592.098 100.438C590.798 100.902 588.198 94.8666 586.898 95.3309C579.902 97.8593 572.364 98.1113 565.234 96.0552C564.998 95.9849 564.748 96.0048 564.524 96.1116C564.301 96.2185 564.12 96.4054 564.012 96.6402C563.431 97.9124 562.279 100.243 561.347 100.907C560.047 101.836 560.047 95.7998 558.748 94.8712C557.448 93.9426 543.149 80.4779 543.149 80.4779L543.136 72.5802Z" fill="url(#paint4_linear_11_209)"/>
<path d="M597.522 74.0102C597.522 74.0102 602.843 69.9662 605.69 72.9702C608.537 75.9742 608.09 79.1082 605.803 79.8558C604.095 80.4129 601.435 77.3485 602.583 75.3799C603.731 73.4113 605.738 72.3573 608.043 74.0102C610.348 75.6631 611.383 78.9782 611.509 80.8308" stroke="#F93764" stroke-width="4" stroke-miterlimit="10" stroke-linecap="round"/>
<path d="M556.997 75.7931C558.33 75.7931 559.41 74.6353 559.41 73.207C559.41 71.7787 558.33 70.6208 556.997 70.6208C555.664 70.6208 554.584 71.7787 554.584 73.207C554.584 74.6353 555.664 75.7931 556.997 75.7931Z" fill="#F7B14A"/>
<path d="M566.859 57.4579C566.859 57.4579 576.547 54.6721 582.834 57.7365" stroke="url(#paint5_linear_11_209)" stroke-linecap="round" stroke-linejoin="round"/>
<path d="M575.052 47.1411C580.403 47.1411 584.74 42.4931 584.74 36.7594C584.74 31.0257 580.403 26.3776 575.052 26.3776C569.701 26.3776 565.364 31.0257 565.364 36.7594C565.364 42.4931 569.701 47.1411 575.052 47.1411Z" fill="url(#paint6_linear_11_209)"/>
<path d="M574.987 45.2979C579.366 45.2979 582.916 41.4938 582.916 36.8012C582.916 32.1086 579.366 28.3045 574.987 28.3045C570.608 28.3045 567.058 32.1086 567.058 36.8012C567.058 41.4938 570.608 45.2979 574.987 45.2979Z" stroke="url(#paint7_linear_11_209)" stroke-miterlimit="10"/>
<path d="M579.586 56.7512V32.4694H581.141V56.7512H579.586ZM584.821 39.754C584.708 38.7928 584.246 38.0467 583.437 37.5155C582.627 36.9843 581.634 36.7187 580.458 36.7187C579.598 36.7187 578.846 36.8579 578.201 37.1361C577.562 37.4143 577.063 37.7969 576.702 38.2838C576.348 38.7707 576.171 39.324 576.171 39.9437C576.171 40.4622 576.294 40.908 576.541 41.2811C576.794 41.6478 577.116 41.9545 577.508 42.2011C577.9 42.4414 578.311 42.6406 578.741 42.7987C579.171 42.9504 579.567 43.0737 579.927 43.1686L581.9 43.6998C582.406 43.8326 582.969 44.0159 583.588 44.2499C584.214 44.4839 584.812 44.8032 585.381 45.2079C585.956 45.6063 586.431 46.1185 586.804 46.7445C587.177 47.3705 587.363 48.1388 587.363 49.0494C587.363 50.099 587.088 51.0475 586.538 51.8949C585.994 52.7422 585.198 53.4157 584.148 53.9152C583.105 54.4147 581.837 54.6645 580.344 54.6645C578.953 54.6645 577.749 54.44 576.731 53.9911C575.719 53.5421 574.922 52.9161 574.34 52.113C573.765 51.31 573.439 50.3773 573.363 49.3149H575.792C575.855 50.0484 576.101 50.6555 576.531 51.1361C576.968 51.6103 577.518 51.9644 578.182 52.1984C578.852 52.426 579.573 52.5399 580.344 52.5399C581.242 52.5399 582.049 52.3944 582.763 52.1035C583.478 51.8063 584.044 51.3953 584.461 50.8705C584.878 50.3393 585.087 49.7196 585.087 49.0114C585.087 48.3664 584.907 47.8416 584.546 47.4369C584.186 47.0322 583.712 46.7034 583.124 46.4504C582.536 46.1975 581.9 45.9762 581.217 45.7865L578.827 45.1036C577.309 44.6672 576.108 44.0444 575.223 43.235C574.337 42.4256 573.895 41.3664 573.895 40.0575C573.895 38.9699 574.189 38.0214 574.777 37.212C575.371 36.3962 576.168 35.7639 577.167 35.3149C578.172 34.8597 579.295 34.632 580.534 34.632C581.786 34.632 582.899 34.8565 583.873 35.3055C584.847 35.7481 585.618 36.3551 586.187 37.1266C586.763 37.8981 587.066 38.7738 587.098 39.754H584.821Z" fill="#F9B449"/>
<path d="M586.339 24.669C589.862 24.669 592.717 21.6091 592.717 17.8345C592.717 14.0599 589.862 11 586.339 11C582.817 11 579.961 14.0599 579.961 17.8345C579.961 21.6091 582.817 24.669 586.339 24.669Z" fill="url(#paint8_linear_11_209)"/>
<path d="M586.296 23.4572C589.179 23.4572 591.517 20.9523 591.517 17.8624C591.517 14.7724 589.179 12.2675 586.296 12.2675C583.412 12.2675 581.075 14.7724 581.075 17.8624C581.075 20.9523 583.412 23.4572 586.296 23.4572Z" stroke="url(#paint9_linear_11_209)" stroke-miterlimit="10"/>
<path d="M589.319 30.8796V14.8978H590.343V30.8796H589.319ZM592.765 19.6924C592.69 19.0598 592.386 18.5687 591.854 18.219C591.321 17.8694 590.667 17.6946 589.893 17.6946C589.327 17.6946 588.832 17.7862 588.408 17.9693C587.987 18.1525 587.658 18.4043 587.421 18.7247C587.188 19.0452 587.072 19.4094 587.072 19.8172C587.072 20.1585 587.153 20.4519 587.315 20.6975C587.482 20.9389 587.694 21.1407 587.952 21.303C588.21 21.4612 588.48 21.5923 588.763 21.6963C589.046 21.7962 589.307 21.8774 589.544 21.9398L590.842 22.2894C591.175 22.3768 591.546 22.4975 591.953 22.6515C592.366 22.8055 592.759 23.0157 593.133 23.282C593.512 23.5442 593.824 23.8814 594.07 24.2934C594.315 24.7054 594.438 25.2111 594.438 25.8104C594.438 26.5013 594.257 27.1256 593.895 27.6833C593.537 28.241 593.013 28.6842 592.322 29.013C591.635 29.3418 590.801 29.5062 589.818 29.5062C588.903 29.5062 588.11 29.3585 587.44 29.063C586.774 28.7675 586.25 28.3554 585.867 27.8269C585.488 27.2983 585.274 26.6844 585.224 25.9852H586.822C586.863 26.468 587.026 26.8675 587.309 27.1838C587.596 27.496 587.958 27.7291 588.395 27.8831C588.836 28.0329 589.311 28.1078 589.818 28.1078C590.409 28.1078 590.94 28.0121 591.41 27.8206C591.881 27.625 592.253 27.3545 592.528 27.009C592.803 26.6594 592.94 26.2516 592.94 25.7854C592.94 25.3609 592.821 25.0155 592.584 24.7491C592.347 24.4828 592.035 24.2663 591.648 24.0999C591.261 23.9334 590.842 23.7877 590.393 23.6629L588.82 23.2134C587.821 22.9262 587.03 22.5162 586.447 21.9835C585.865 21.4508 585.573 20.7537 585.573 19.8921C585.573 19.1763 585.767 18.552 586.154 18.0193C586.545 17.4824 587.069 17.0662 587.727 16.7707C588.389 16.471 589.128 16.3212 589.943 16.3212C590.767 16.3212 591.5 16.469 592.141 16.7645C592.782 17.0558 593.289 17.4553 593.664 17.9631C594.043 18.4708 594.243 19.0473 594.263 19.6924H592.765Z" fill="#F9B449"/>
<path d="M563.522 27.2598C566.042 27.2598 568.085 25.0709 568.085 22.3707C568.085 19.6705 566.042 17.4816 563.522 17.4816C561.003 17.4816 558.96 19.6705 558.96 22.3707C558.96 25.0709 561.003 27.2598 563.522 27.2598Z" fill="url(#paint10_linear_11_209)"/>
<path d="M563.488 26.3916C565.55 26.3916 567.223 24.5997 567.223 22.3893C567.223 20.1789 565.55 18.387 563.488 18.387C561.425 18.387 559.753 20.1789 559.753 22.3893C559.753 24.5997 561.425 26.3916 563.488 26.3916Z" stroke="url(#paint11_linear_11_209)" stroke-miterlimit="10"/>
<path d="M565.656 31.5399V20.1036H566.388V31.5399H565.656ZM568.121 23.5345C568.068 23.0818 567.85 22.7304 567.469 22.4802C567.088 22.23 566.62 22.1049 566.067 22.1049C565.661 22.1049 565.307 22.1705 565.003 22.3015C564.703 22.4325 564.467 22.6127 564.297 22.842C564.131 23.0714 564.047 23.332 564.047 23.6238C564.047 23.868 564.105 24.078 564.222 24.2537C564.341 24.4265 564.493 24.5709 564.677 24.6871C564.862 24.8002 565.055 24.894 565.258 24.9685C565.46 25.04 565.647 25.098 565.816 25.1427L566.746 25.3929C566.984 25.4554 567.249 25.5418 567.541 25.652C567.836 25.7622 568.117 25.9126 568.385 26.1032C568.656 26.2908 568.879 26.5321 569.055 26.8269C569.231 27.1217 569.319 27.4836 569.319 27.9125C569.319 28.4069 569.189 28.8536 568.93 29.2527C568.674 29.6517 568.299 29.9689 567.804 30.2042C567.313 30.4395 566.716 30.5571 566.013 30.5571C565.358 30.5571 564.79 30.4514 564.311 30.2399C563.834 30.0285 563.459 29.7336 563.185 29.3554C562.914 28.9772 562.761 28.5379 562.725 28.0376H563.869C563.898 28.383 564.015 28.6689 564.217 28.8953C564.423 29.1186 564.682 29.2854 564.994 29.3956C565.31 29.5028 565.65 29.5564 566.013 29.5564C566.436 29.5564 566.816 29.4879 567.152 29.3509C567.489 29.211 567.755 29.0174 567.952 28.7702C568.148 28.52 568.247 28.2282 568.247 27.8946C568.247 27.5908 568.162 27.3436 567.992 27.153C567.822 26.9624 567.599 26.8075 567.322 26.6884C567.045 26.5693 566.746 26.4651 566.424 26.3757L565.298 26.0541C564.583 25.8486 564.018 25.5552 563.601 25.174C563.184 24.7928 562.975 24.2939 562.975 23.6774C562.975 23.1652 563.114 22.7185 563.391 22.3372C563.671 21.953 564.046 21.6552 564.516 21.4438C564.99 21.2293 565.519 21.1221 566.102 21.1221C566.692 21.1221 567.216 21.2279 567.675 21.4393C568.133 21.6478 568.497 21.9337 568.765 22.297C569.036 22.6604 569.179 23.0729 569.194 23.5345H568.121Z" fill="#F9B449"/>
</g>
</g>
<defs>
<linearGradient id="paint0_linear_11_209" x1="438.131" y1="349.348" x2="569.092" y2="349.348" gradientUnits="userSpaceOnUse">
<stop stop-color="#4F68CA"/>
<stop offset="1" stop-color="#5ACEED"/>
</linearGradient>
<linearGradient id="paint1_linear_11_209" x1="500.445" y1="164.553" x2="578.551" y2="164.553" gradientUnits="userSpaceOnUse">
<stop offset="0.11" stop-color="#F87B58"/>
<stop offset="0.5" stop-color="#F8C548"/>
<stop offset="1" stop-color="#F89C51"/>
</linearGradient>
<linearGradient id="paint2_linear_11_209" x1="500.56" y1="225.987" x2="610.444" y2="137.373" gradientUnits="userSpaceOnUse">
<stop stop-color="#7658F4"/>
<stop offset="1" stop-color="#E1A1ED"/>
</linearGradient>
<linearGradient id="paint3_linear_11_209" x1="495.027" y1="179.317" x2="570.115" y2="179.317" gradientUnits="userSpaceOnUse">
<stop stop-color="#4B44BE"/>
<stop offset="1" stop-color="#5BD3EF"/>
</linearGradient>
<linearGradient id="paint4_linear_11_209" x1="591.773" y1="92.7262" x2="544.756" y2="60.8442" gradientUnits="userSpaceOnUse">
<stop stop-color="#F92468"/>
<stop offset="1" stop-color="#F9B449"/>
</linearGradient>
<linearGradient id="paint5_linear_11_209" x1="566.642" y1="57.0122" x2="583.051" y2="57.0122" gradientUnits="userSpaceOnUse">
<stop stop-color="#F92468"/>
<stop offset="1" stop-color="#F93764"/>
</linearGradient>
<linearGradient id="paint6_linear_11_209" x1="562.43" y1="56.9054" x2="582.668" y2="28.7739" gradientUnits="userSpaceOnUse">
<stop stop-color="#F92468"/>
<stop offset="1" stop-color="#F9B449"/>
</linearGradient>
<linearGradient id="paint7_linear_11_209" x1="566.841" y1="36.8012" x2="583.133" y2="36.8012" gradientUnits="userSpaceOnUse">
<stop stop-color="#F92468"/>
<stop offset="1" stop-color="#F93764"/>
</linearGradient>
<linearGradient id="paint8_linear_11_209" x1="578.029" y1="31.0996" x2="591.351" y2="12.5773" gradientUnits="userSpaceOnUse">
<stop stop-color="#F92468"/>
<stop offset="1" stop-color="#F9B449"/>
</linearGradient>
<linearGradient id="paint9_linear_11_209" x1="580.858" y1="17.8624" x2="591.734" y2="17.8624" gradientUnits="userSpaceOnUse">
<stop stop-color="#F92468"/>
<stop offset="1" stop-color="#F93764"/>
</linearGradient>
<linearGradient id="paint10_linear_11_209" x1="557.573" y1="31.861" x2="567.109" y2="18.6077" gradientUnits="userSpaceOnUse">
<stop stop-color="#F92468"/>
<stop offset="1" stop-color="#F9B449"/>
</linearGradient>
<linearGradient id="paint11_linear_11_209" x1="559.536" y1="22.3893" x2="567.444" y2="22.3893" gradientUnits="userSpaceOnUse">
<stop stop-color="#F92468"/>
<stop offset="1" stop-color="#F93764"/>
</linearGradient>
<clipPath id="clip0_11_209">
<rect width="741" height="508" fill="white"/>
</clipPath>
<clipPath id="clip1_11_209">
<rect width="165.609" height="365.026" fill="white" transform="translate(413.626 78.8457)"/>
</clipPath>
<clipPath id="clip2_11_209">
<rect width="69.2523" height="90" fill="white" transform="translate(543.136 11)"/>
</clipPath>
</defs>
</svg>
